# xmcd CD database file
#
# Track frame offsets:
#	150
#	12105
#	25891
#	42378
#	56293
#	71534
#	84239
#	98081
#	110679
#	122921
#	133441
#	149162
#	160664
#	175058
#	190217
#	207508
#
# Disc length: 2978 seconds
#
# Revision: 0
# Processed by: cddbd v1.5.1PL0 Copyright (c) Steve Scherf et al.
# Submitted via: CDex 1.50
#
DISCID=e40ba010
DTITLE=The Country Dance Kings - Country Line Dance Favourites, CD1
DYEAR=1998
DGENRE=Country
TTITLE0=Hillbilly Rock
TTITLE1=Boot Scootin' Boogie
TTITLE2=I Feel Lucky
TTITLE3=Honky-Tonk Blues
TTITLE4=Achy Breaky Heart
TTITLE5=Dumas Walker
TTITLE6=Guitars, Cadillacs
TTITLE7=I'm In A Hurry
TTITLE8=What Part Of No
TTITLE9=One More Payment
TTITLE10=A Jukebox With A Country Song
TTITLE11=Watcha Gonna Do With A Cowboy
TTITLE12=Chattahoochee
TTITLE13=Trashy Women
TTITLE14=Prop Me Up Beside The Jukebox
TTITLE15=God Blessed Texas
EXTD=YEAR: 1998
EXTT0=
EXTT1=
EXTT2=
EXTT3=
EXTT4=
EXTT5=
EXTT6=
EXTT7=
EXTT8=
EXTT9=
EXTT10=
EXTT11=
EXTT12=
EXTT13=
EXTT14=
EXTT15=
PLAYORDER=
